<mxfile host="65bd71144e">
    <diagram id="CJlEyAUmH-SlpHdKNIud" name="Table">
        <mxGraphModel dx="698" dy="517" grid="1" gridSize="10" guides="1" tooltips="1" connect="1" arrows="1" fold="1" page="1" pageScale="1" pageWidth="827" pageHeight="1169" math="0" shadow="0">
            <root>
                <mxCell id="0"/>
                <mxCell id="1" parent="0"/>
                <UserObject label="module" hedietLinkedDataV1_path="../src/table/table.module.ts" id="2">
                    <mxCell style="rounded=1;whiteSpace=wrap;html=1;" parent="1" vertex="1">
                        <mxGeometry x="160" y="201" width="80" height="60" as="geometry"/>
                    </mxCell>
                </UserObject>
                <mxCell id="3" value="controller" style="rounded=1;whiteSpace=wrap;html=1;" parent="1" vertex="1">
                    <mxGeometry x="280" y="281" width="80" height="60" as="geometry"/>
                </mxCell>
                <mxCell id="8" value="" style="edgeStyle=entityRelationEdgeStyle;startArrow=none;endArrow=none;segment=10;curved=1;sourcePerimeterSpacing=0;targetPerimeterSpacing=0;exitX=1;exitY=0.5;exitDx=0;exitDy=0;entryX=0;entryY=0.5;entryDx=0;entryDy=0;" parent="1" source="2" target="3" edge="1">
                    <mxGeometry relative="1" as="geometry">
                        <mxPoint x="240" y="248" as="sourcePoint"/>
                        <mxPoint x="280" y="231" as="targetPoint"/>
                    </mxGeometry>
                </mxCell>
                <mxCell id="9" value="" style="edgeStyle=entityRelationEdgeStyle;startArrow=none;endArrow=none;segment=10;curved=1;sourcePerimeterSpacing=0;targetPerimeterSpacing=0;exitX=1;exitY=0.5;exitDx=0;exitDy=0;" parent="1" source="19" edge="1">
                    <mxGeometry relative="1" as="geometry">
                        <mxPoint x="530" y="331" as="sourcePoint"/>
                        <mxPoint x="520" y="331" as="targetPoint"/>
                    </mxGeometry>
                </mxCell>
                <mxCell id="11" value="" style="edgeStyle=entityRelationEdgeStyle;startArrow=none;endArrow=none;segment=10;curved=1;sourcePerimeterSpacing=0;targetPerimeterSpacing=0;exitX=1;exitY=0.5;exitDx=0;exitDy=0;entryX=0;entryY=0.5;entryDx=0;entryDy=0;" parent="1" source="15" target="2" edge="1">
                    <mxGeometry relative="1" as="geometry">
                        <mxPoint x="90" y="291" as="sourcePoint"/>
                        <mxPoint x="160" y="231" as="targetPoint"/>
                    </mxGeometry>
                </mxCell>
                <mxCell id="12" value="" style="edgeStyle=entityRelationEdgeStyle;startArrow=none;endArrow=none;segment=10;curved=1;sourcePerimeterSpacing=0;targetPerimeterSpacing=0;exitX=1;exitY=0.5;exitDx=0;exitDy=0;" parent="1" edge="1">
                    <mxGeometry relative="1" as="geometry">
                        <mxPoint x="480" y="391" as="sourcePoint"/>
                        <mxPoint x="520" y="451" as="targetPoint"/>
                    </mxGeometry>
                </mxCell>
                <mxCell id="14" value="Buscar todas as mesas:&lt;br&gt;@Get( )&lt;br&gt;findAll( )" style="text;html=1;strokeColor=none;fillColor=none;align=left;verticalAlign=middle;whiteSpace=wrap;rounded=0;" parent="1" vertex="1">
                    <mxGeometry x="522" y="305" width="140" height="50" as="geometry"/>
                </mxCell>
                <mxCell id="15" value="table" style="rounded=0;whiteSpace=wrap;html=1;" parent="1" vertex="1">
                    <mxGeometry x="40" y="121" width="80" height="60" as="geometry"/>
                </mxCell>
                <mxCell id="18" value="" style="edgeStyle=entityRelationEdgeStyle;startArrow=none;endArrow=none;segment=10;curved=1;sourcePerimeterSpacing=0;targetPerimeterSpacing=0;exitX=1;exitY=0.5;exitDx=0;exitDy=0;entryX=0;entryY=0.5;entryDx=0;entryDy=0;" parent="1" target="19" edge="1">
                    <mxGeometry relative="1" as="geometry">
                        <mxPoint x="360" y="311" as="sourcePoint"/>
                        <mxPoint x="400" y="311" as="targetPoint"/>
                    </mxGeometry>
                </mxCell>
                <mxCell id="19" value="service" style="rounded=1;whiteSpace=wrap;html=1;" parent="1" vertex="1">
                    <mxGeometry x="400" y="361" width="80" height="60" as="geometry"/>
                </mxCell>
                <mxCell id="20" value="Criar mesa:&lt;br&gt;@Post( )&lt;br&gt;create( )" style="text;html=1;strokeColor=none;fillColor=none;align=left;verticalAlign=middle;whiteSpace=wrap;rounded=0;" parent="1" vertex="1">
                    <mxGeometry x="522" y="426" width="140" height="50" as="geometry"/>
                </mxCell>
                <mxCell id="maWGvvhST9VniCg5oIW5-20" value="main" style="rounded=1;whiteSpace=wrap;html=1;" parent="1" vertex="1">
                    <mxGeometry x="40" y="20" width="80" height="60" as="geometry"/>
                </mxCell>
                <mxCell id="maWGvvhST9VniCg5oIW5-21" value="" style="endArrow=none;html=1;" parent="1" edge="1">
                    <mxGeometry width="50" height="50" relative="1" as="geometry">
                        <mxPoint x="80" y="121" as="sourcePoint"/>
                        <mxPoint x="80" y="120" as="targetPoint"/>
                    </mxGeometry>
                </mxCell>
                <mxCell id="4-ZXmJUindu0gX_uFada-21" value="" style="endArrow=none;html=1;entryX=0.5;entryY=1;entryDx=0;entryDy=0;" parent="1" target="maWGvvhST9VniCg5oIW5-20" edge="1">
                    <mxGeometry width="50" height="50" relative="1" as="geometry">
                        <mxPoint x="80" y="120" as="sourcePoint"/>
                        <mxPoint x="130" y="70" as="targetPoint"/>
                    </mxGeometry>
                </mxCell>
            </root>
        </mxGraphModel>
    </diagram>
    <diagram id="nv9OTuV3TVpOMi7t-wzZ" name="Dto (data transfer object)">
        <mxGraphModel dx="698" dy="517" grid="1" gridSize="10" guides="1" tooltips="1" connect="1" arrows="1" fold="1" page="1" pageScale="1" pageWidth="827" pageHeight="1169" math="0" shadow="0">
            <root>
                <mxCell id="0"/>
                <mxCell id="1" parent="0"/>
                <mxCell id="8pJuiV6jhdb2XDTnb1h4-1" value="" style="edgeStyle=entityRelationEdgeStyle;startArrow=none;endArrow=none;segment=10;curved=1;sourcePerimeterSpacing=0;targetPerimeterSpacing=0;exitX=1;exitY=0.5;exitDx=0;exitDy=0;" parent="1" source="8pJuiV6jhdb2XDTnb1h4-4" edge="1">
                    <mxGeometry relative="1" as="geometry">
                        <mxPoint x="291" y="308" as="sourcePoint"/>
                        <mxPoint x="281" y="308" as="targetPoint"/>
                    </mxGeometry>
                </mxCell>
                <mxCell id="8pJuiV6jhdb2XDTnb1h4-2" value="" style="edgeStyle=entityRelationEdgeStyle;startArrow=none;endArrow=none;segment=10;curved=1;sourcePerimeterSpacing=0;targetPerimeterSpacing=0;exitX=1;exitY=0.5;exitDx=0;exitDy=0;" parent="1" edge="1">
                    <mxGeometry relative="1" as="geometry">
                        <mxPoint x="241" y="368" as="sourcePoint"/>
                        <mxPoint x="281" y="428" as="targetPoint"/>
                    </mxGeometry>
                </mxCell>
                <mxCell id="8pJuiV6jhdb2XDTnb1h4-3" value="Buscar todas as mesas:&lt;br&gt;findAll( )" style="text;html=1;strokeColor=none;fillColor=none;align=left;verticalAlign=middle;whiteSpace=wrap;rounded=0;" parent="1" vertex="1">
                    <mxGeometry x="283" y="282" width="140" height="50" as="geometry"/>
                </mxCell>
                <mxCell id="8pJuiV6jhdb2XDTnb1h4-4" value="service" style="rounded=1;whiteSpace=wrap;html=1;" parent="1" vertex="1">
                    <mxGeometry x="161" y="338" width="80" height="60" as="geometry"/>
                </mxCell>
                <mxCell id="8pJuiV6jhdb2XDTnb1h4-5" value="Criar mesa:&lt;br&gt;create( )" style="text;html=1;strokeColor=none;fillColor=none;align=left;verticalAlign=middle;whiteSpace=wrap;rounded=0;" parent="1" vertex="1">
                    <mxGeometry x="283" y="410" width="98" height="40" as="geometry"/>
                </mxCell>
                <mxCell id="8pJuiV6jhdb2XDTnb1h4-6" value="dto" style="rounded=0;whiteSpace=wrap;html=1;fillColor=#4D4D4D;" parent="1" vertex="1">
                    <mxGeometry x="161" y="139" width="80" height="60" as="geometry"/>
                </mxCell>
                <mxCell id="8pJuiV6jhdb2XDTnb1h4-7" value="" style="edgeStyle=entityRelationEdgeStyle;startArrow=none;endArrow=none;segment=10;curved=1;sourcePerimeterSpacing=0;targetPerimeterSpacing=0;exitX=1;exitY=0.5;exitDx=0;exitDy=0;" parent="1" source="8pJuiV6jhdb2XDTnb1h4-6" edge="1">
                    <mxGeometry relative="1" as="geometry">
                        <mxPoint x="291" y="109" as="sourcePoint"/>
                        <mxPoint x="281" y="109" as="targetPoint"/>
                    </mxGeometry>
                </mxCell>
                <mxCell id="kGIsxULHno0_Meq5SSgv-3" value="" style="endArrow=classic;html=1;" parent="1" edge="1">
                    <mxGeometry relative="1" as="geometry">
                        <mxPoint x="80" y="370" as="sourcePoint"/>
                        <mxPoint x="160" y="369.5" as="targetPoint"/>
                    </mxGeometry>
                </mxCell>
                <mxCell id="kGIsxULHno0_Meq5SSgv-4" value="controller" style="edgeLabel;resizable=0;html=1;align=center;verticalAlign=middle;" parent="kGIsxULHno0_Meq5SSgv-3" connectable="0" vertex="1">
                    <mxGeometry relative="1" as="geometry"/>
                </mxCell>
                <mxCell id="kGIsxULHno0_Meq5SSgv-5" value="create-table.dto" style="rounded=1;whiteSpace=wrap;html=1;" parent="1" vertex="1">
                    <mxGeometry x="283" y="79" width="80" height="60" as="geometry"/>
                </mxCell>
                <mxCell id="OMXU0RxrFD-0oDe4MgdV-1" value="" style="edgeStyle=entityRelationEdgeStyle;startArrow=none;endArrow=none;segment=10;curved=1;sourcePerimeterSpacing=0;targetPerimeterSpacing=0;exitX=1;exitY=0.5;exitDx=0;exitDy=0;" parent="1" edge="1">
                    <mxGeometry relative="1" as="geometry">
                        <mxPoint x="363" y="108" as="sourcePoint"/>
                        <mxPoint x="403" y="48" as="targetPoint"/>
                    </mxGeometry>
                </mxCell>
                <mxCell id="eB5xT3eN4-p0JqdNQRxs-2" value="&lt;div style=&quot;color: rgb(248, 248, 242); background-color: rgb(40, 42, 54); font-family: Consolas, &amp;quot;Courier New&amp;quot;, monospace; font-size: 14px; line-height: 19px;&quot;&gt;&lt;div&gt;&lt;span style=&quot;color: #ff79c6;&quot;&gt;export&lt;/span&gt; &lt;span style=&quot;color: #ff79c6;&quot;&gt;class&lt;/span&gt; &lt;span style=&quot;color: #8be9fd;&quot;&gt;CreateTableDto&lt;/span&gt; {&lt;/div&gt;&lt;div&gt;&amp;nbsp; number&lt;span style=&quot;color: #ff79c6;&quot;&gt;:&lt;/span&gt; &lt;span style=&quot;color: #8be9fd;font-style: italic;&quot;&gt;number&lt;/span&gt;;&lt;/div&gt;&lt;div&gt;}&lt;/div&gt;&lt;/div&gt;" style="text;html=1;strokeColor=none;fillColor=none;align=left;verticalAlign=middle;whiteSpace=wrap;rounded=0;" parent="1" vertex="1">
                    <mxGeometry x="408" y="2" width="230" height="90" as="geometry"/>
                </mxCell>
                <mxCell id="AfgHdYP_PLFyPuI0itNE-2" value="" style="curved=1;endArrow=classic;html=1;exitX=0.5;exitY=1;exitDx=0;exitDy=0;" parent="1" source="eB5xT3eN4-p0JqdNQRxs-2" target="8pJuiV6jhdb2XDTnb1h4-5" edge="1">
                    <mxGeometry width="50" height="50" relative="1" as="geometry">
                        <mxPoint x="523" y="100" as="sourcePoint"/>
                        <mxPoint x="501" y="450" as="targetPoint"/>
                        <Array as="points">
                            <mxPoint x="531" y="120"/>
                            <mxPoint x="571" y="270"/>
                            <mxPoint x="541" y="431"/>
                        </Array>
                    </mxGeometry>
                </mxCell>
                <mxCell id="SkJ_KFiXWMd74jTcz8l0-1" value="" style="edgeStyle=entityRelationEdgeStyle;startArrow=none;endArrow=none;segment=10;curved=1;sourcePerimeterSpacing=0;targetPerimeterSpacing=0;exitX=1;exitY=0.5;exitDx=0;exitDy=0;entryX=0;entryY=0.5;entryDx=0;entryDy=0;" parent="1" source="SkJ_KFiXWMd74jTcz8l0-2" target="8pJuiV6jhdb2XDTnb1h4-6" edge="1">
                    <mxGeometry relative="1" as="geometry">
                        <mxPoint x="91" y="210" as="sourcePoint"/>
                        <mxPoint x="161" y="150" as="targetPoint"/>
                    </mxGeometry>
                </mxCell>
                <mxCell id="SkJ_KFiXWMd74jTcz8l0-2" value="table" style="rounded=0;whiteSpace=wrap;html=1;" parent="1" vertex="1">
                    <mxGeometry x="41" y="40" width="80" height="60" as="geometry"/>
                </mxCell>
            </root>
        </mxGraphModel>
    </diagram>
    <diagram id="yNlbeLO42DVFn8q-gMnx" name="Entities">
        <mxGraphModel dx="698" dy="517" grid="1" gridSize="10" guides="1" tooltips="1" connect="1" arrows="1" fold="1" page="1" pageScale="1" pageWidth="827" pageHeight="1169" math="0" shadow="0">
            <root>
                <mxCell id="0"/>
                <mxCell id="1" parent="0"/>
                <mxCell id="Qn52qZxUSLeO3QgLNA-d-1" value="entities" style="rounded=0;whiteSpace=wrap;html=1;fillColor=#4D4D4D;" parent="1" vertex="1">
                    <mxGeometry x="161" y="139" width="80" height="60" as="geometry"/>
                </mxCell>
                <mxCell id="Qn52qZxUSLeO3QgLNA-d-2" value="" style="edgeStyle=entityRelationEdgeStyle;startArrow=none;endArrow=none;segment=10;curved=1;sourcePerimeterSpacing=0;targetPerimeterSpacing=0;exitX=1;exitY=0.5;exitDx=0;exitDy=0;" parent="1" source="Qn52qZxUSLeO3QgLNA-d-1" edge="1">
                    <mxGeometry relative="1" as="geometry">
                        <mxPoint x="291" y="109" as="sourcePoint"/>
                        <mxPoint x="281" y="109" as="targetPoint"/>
                    </mxGeometry>
                </mxCell>
                <mxCell id="Qn52qZxUSLeO3QgLNA-d-3" value="table.entity.ts" style="rounded=1;whiteSpace=wrap;html=1;" parent="1" vertex="1">
                    <mxGeometry x="283" y="79" width="80" height="60" as="geometry"/>
                </mxCell>
                <mxCell id="Qn52qZxUSLeO3QgLNA-d-4" value="" style="edgeStyle=entityRelationEdgeStyle;startArrow=none;endArrow=none;segment=10;curved=1;sourcePerimeterSpacing=0;targetPerimeterSpacing=0;exitX=1;exitY=0.5;exitDx=0;exitDy=0;" parent="1" edge="1">
                    <mxGeometry relative="1" as="geometry">
                        <mxPoint x="363" y="108" as="sourcePoint"/>
                        <mxPoint x="403" y="48" as="targetPoint"/>
                    </mxGeometry>
                </mxCell>
                <mxCell id="3lKhqpAlBxftECg8qoNx-1" value="&lt;div style=&quot;color: rgb(248, 248, 242); background-color: rgb(40, 42, 54); font-family: Consolas, &amp;quot;Courier New&amp;quot;, monospace; font-size: 14px; line-height: 19px;&quot;&gt;&lt;div&gt;&lt;span style=&quot;color: #ff79c6;&quot;&gt;export&lt;/span&gt; &lt;span style=&quot;color: #ff79c6;&quot;&gt;class&lt;/span&gt; &lt;span style=&quot;color: #8be9fd;&quot;&gt;Table&lt;/span&gt; {&lt;/div&gt;&lt;div&gt;&amp;nbsp; id&lt;span style=&quot;color: #ff79c6;&quot;&gt;:&lt;/span&gt; &lt;span style=&quot;color: #8be9fd;font-style: italic;&quot;&gt;string&lt;/span&gt;;&lt;/div&gt;&lt;div&gt;&amp;nbsp; number&lt;span style=&quot;color: #ff79c6;&quot;&gt;:&lt;/span&gt; &lt;span style=&quot;color: #8be9fd;font-style: italic;&quot;&gt;number&lt;/span&gt;;&lt;/div&gt;&lt;div&gt;}&lt;/div&gt;&lt;/div&gt;" style="text;html=1;strokeColor=none;fillColor=none;align=left;verticalAlign=middle;whiteSpace=wrap;rounded=0;" parent="1" vertex="1">
                    <mxGeometry x="406" y="2" width="160" height="90" as="geometry"/>
                </mxCell>
                <mxCell id="PPFA4kXC6ORGe2xmQGIN-2" value="Service" style="rounded=1;whiteSpace=wrap;html=1;" parent="1" vertex="1">
                    <mxGeometry x="161.0007812271126" y="338" width="80" height="60" as="geometry"/>
                </mxCell>
                <mxCell id="PPFA4kXC6ORGe2xmQGIN-3" value="" style="edgeStyle=entityRelationEdgeStyle;startArrow=none;endArrow=none;segment=10;curved=1;sourcePerimeterSpacing=0;targetPerimeterSpacing=0;exitX=1;exitY=0.5;exitDx=0;exitDy=0;" parent="1" source="PPFA4kXC6ORGe2xmQGIN-2" edge="1">
                    <mxGeometry relative="1" as="geometry">
                        <mxPoint x="291.0007812271126" y="308" as="sourcePoint"/>
                        <mxPoint x="281.0007812271126" y="308" as="targetPoint"/>
                    </mxGeometry>
                </mxCell>
                <mxCell id="PPFA4kXC6ORGe2xmQGIN-4" value="" style="edgeStyle=entityRelationEdgeStyle;startArrow=none;endArrow=none;segment=10;curved=1;sourcePerimeterSpacing=0;targetPerimeterSpacing=0;exitX=1;exitY=0.5;exitDx=0;exitDy=0;" parent="1" edge="1">
                    <mxGeometry relative="1" as="geometry">
                        <mxPoint x="241.0007812271126" y="368" as="sourcePoint"/>
                        <mxPoint x="281.0007812271126" y="428" as="targetPoint"/>
                    </mxGeometry>
                </mxCell>
                <mxCell id="PPFA4kXC6ORGe2xmQGIN-5" value="Buscar todas as mesas:&lt;br&gt;findAll( )" style="text;html=1;strokeColor=none;fillColor=none;align=left;verticalAlign=middle;whiteSpace=wrap;rounded=0;" parent="1" vertex="1">
                    <mxGeometry x="283.0007812271126" y="282" width="140" height="50" as="geometry"/>
                </mxCell>
                <mxCell id="PPFA4kXC6ORGe2xmQGIN-6" value="Criar mesa:&lt;br&gt;create( )" style="text;html=1;strokeColor=none;fillColor=none;align=left;verticalAlign=middle;whiteSpace=wrap;rounded=0;" parent="1" vertex="1">
                    <mxGeometry x="283.0007812271126" y="410" width="98" height="40" as="geometry"/>
                </mxCell>
                <mxCell id="PPFA4kXC6ORGe2xmQGIN-7" value="" style="curved=1;endArrow=classic;html=1;exitX=0.5;exitY=1;exitDx=0;exitDy=0;" parent="1" target="PPFA4kXC6ORGe2xmQGIN-6" edge="1">
                    <mxGeometry width="50" height="50" relative="1" as="geometry">
                        <mxPoint x="523.0007812271126" y="92" as="sourcePoint"/>
                        <mxPoint x="501.0007812271126" y="450" as="targetPoint"/>
                        <Array as="points">
                            <mxPoint x="531.0007812271126" y="120"/>
                            <mxPoint x="571.0007812271126" y="270"/>
                            <mxPoint x="541.0007812271126" y="431"/>
                        </Array>
                    </mxGeometry>
                </mxCell>
                <mxCell id="1D5kQyxYQagz_YeaiaeP-1" value="" style="endArrow=classic;html=1;" parent="1" edge="1">
                    <mxGeometry relative="1" as="geometry">
                        <mxPoint x="80" y="370" as="sourcePoint"/>
                        <mxPoint x="160" y="369.5" as="targetPoint"/>
                    </mxGeometry>
                </mxCell>
                <mxCell id="1D5kQyxYQagz_YeaiaeP-2" value="controller" style="edgeLabel;resizable=0;html=1;align=center;verticalAlign=middle;" parent="1D5kQyxYQagz_YeaiaeP-1" connectable="0" vertex="1">
                    <mxGeometry relative="1" as="geometry"/>
                </mxCell>
                <mxCell id="kNYf_PaJTY4T5BZIlAE0-1" value="table" style="rounded=0;whiteSpace=wrap;html=1;" parent="1" vertex="1">
                    <mxGeometry x="41" y="40" width="80" height="60" as="geometry"/>
                </mxCell>
                <mxCell id="kNYf_PaJTY4T5BZIlAE0-2" value="" style="edgeStyle=entityRelationEdgeStyle;startArrow=none;endArrow=none;segment=10;curved=1;sourcePerimeterSpacing=0;targetPerimeterSpacing=0;exitX=1;exitY=0.5;exitDx=0;exitDy=0;entryX=0;entryY=0.5;entryDx=0;entryDy=0;" parent="1" source="kNYf_PaJTY4T5BZIlAE0-1" edge="1">
                    <mxGeometry relative="1" as="geometry">
                        <mxPoint x="91" y="210" as="sourcePoint"/>
                        <mxPoint x="161" y="169" as="targetPoint"/>
                    </mxGeometry>
                </mxCell>
            </root>
        </mxGraphModel>
    </diagram>
    <diagram id="m7r566pnXA4dVCvg1kqX" name="Swagger">
        <mxGraphModel dx="698" dy="517" grid="1" gridSize="10" guides="1" tooltips="1" connect="1" arrows="1" fold="1" page="1" pageScale="1" pageWidth="827" pageHeight="1169" math="0" shadow="0">
            <root>
                <mxCell id="0"/>
                <mxCell id="1" parent="0"/>
                <UserObject label="module" hedietLinkedDataV1_path="../src/table/table.module.ts" id="9NpazJbj0ygOGIqa0YBD-1">
                    <mxCell style="rounded=1;whiteSpace=wrap;html=1;" parent="1" vertex="1">
                        <mxGeometry x="216" y="317" width="80" height="60" as="geometry"/>
                    </mxCell>
                </UserObject>
                <mxCell id="9NpazJbj0ygOGIqa0YBD-2" value="controller" style="rounded=1;whiteSpace=wrap;html=1;fillColor=#3333FF;" parent="1" vertex="1">
                    <mxGeometry x="336" y="411" width="80" height="60" as="geometry"/>
                </mxCell>
                <mxCell id="9NpazJbj0ygOGIqa0YBD-3" value="" style="edgeStyle=entityRelationEdgeStyle;startArrow=none;endArrow=none;segment=10;curved=1;sourcePerimeterSpacing=0;targetPerimeterSpacing=0;exitX=1;exitY=0.5;exitDx=0;exitDy=0;entryX=0;entryY=0.5;entryDx=0;entryDy=0;" parent="1" source="9NpazJbj0ygOGIqa0YBD-1" target="9NpazJbj0ygOGIqa0YBD-2" edge="1">
                    <mxGeometry relative="1" as="geometry">
                        <mxPoint x="296" y="378" as="sourcePoint"/>
                        <mxPoint x="336" y="361" as="targetPoint"/>
                    </mxGeometry>
                </mxCell>
                <mxCell id="9NpazJbj0ygOGIqa0YBD-5" value="" style="edgeStyle=entityRelationEdgeStyle;startArrow=none;endArrow=none;segment=10;curved=1;sourcePerimeterSpacing=0;targetPerimeterSpacing=0;exitX=1;exitY=0.5;exitDx=0;exitDy=0;entryX=0;entryY=0.5;entryDx=0;entryDy=0;" parent="1" source="9NpazJbj0ygOGIqa0YBD-8" target="9NpazJbj0ygOGIqa0YBD-1" edge="1">
                    <mxGeometry relative="1" as="geometry">
                        <mxPoint x="146" y="421" as="sourcePoint"/>
                        <mxPoint x="216" y="361" as="targetPoint"/>
                    </mxGeometry>
                </mxCell>
                <mxCell id="9NpazJbj0ygOGIqa0YBD-8" value="table" style="rounded=0;whiteSpace=wrap;html=1;" parent="1" vertex="1">
                    <mxGeometry x="96" y="251" width="80" height="60" as="geometry"/>
                </mxCell>
                <mxCell id="9NpazJbj0ygOGIqa0YBD-9" value="" style="edgeStyle=entityRelationEdgeStyle;startArrow=none;endArrow=none;segment=10;curved=1;sourcePerimeterSpacing=0;targetPerimeterSpacing=0;exitX=1;exitY=0.5;exitDx=0;exitDy=0;entryX=0;entryY=0.5;entryDx=0;entryDy=0;" parent="1" edge="1">
                    <mxGeometry relative="1" as="geometry">
                        <mxPoint x="416" y="441" as="sourcePoint"/>
                        <mxPoint x="456" y="521" as="targetPoint"/>
                    </mxGeometry>
                </mxCell>
                <mxCell id="9NpazJbj0ygOGIqa0YBD-12" value="main" style="rounded=1;whiteSpace=wrap;html=1;fillColor=#3333FF;" parent="1" vertex="1">
                    <mxGeometry x="96" y="30" width="80" height="60" as="geometry"/>
                </mxCell>
                <mxCell id="9NpazJbj0ygOGIqa0YBD-13" value="" style="endArrow=none;html=1;" parent="1" edge="1">
                    <mxGeometry width="50" height="50" relative="1" as="geometry">
                        <mxPoint x="136" y="251" as="sourcePoint"/>
                        <mxPoint x="136" y="250" as="targetPoint"/>
                    </mxGeometry>
                </mxCell>
                <mxCell id="9NpazJbj0ygOGIqa0YBD-14" value="" style="endArrow=none;html=1;entryX=0.5;entryY=1;entryDx=0;entryDy=0;" parent="1" target="9NpazJbj0ygOGIqa0YBD-12" edge="1">
                    <mxGeometry width="50" height="50" relative="1" as="geometry">
                        <mxPoint x="136" y="250" as="sourcePoint"/>
                        <mxPoint x="186" y="200" as="targetPoint"/>
                    </mxGeometry>
                </mxCell>
                <mxCell id="XAhSsXsDvgLGnZKUofWl-1" value="entities" style="rounded=0;whiteSpace=wrap;html=1;fillColor=#1A1A1A;" parent="1" vertex="1">
                    <mxGeometry x="216" y="185" width="80" height="60" as="geometry"/>
                </mxCell>
                <mxCell id="XAhSsXsDvgLGnZKUofWl-2" value="SWAGGER" style="ellipse;whiteSpace=wrap;html=1;fillColor=#1A1A1A;" parent="1" vertex="1">
                    <mxGeometry x="436" y="80" width="190" height="89" as="geometry"/>
                </mxCell>
                <mxCell id="OvC5UyDn5vQBD2vKrKi3-1" value="" style="edgeStyle=entityRelationEdgeStyle;startArrow=none;endArrow=none;segment=10;curved=1;sourcePerimeterSpacing=0;targetPerimeterSpacing=0;exitX=1;exitY=0.5;exitDx=0;exitDy=0;entryX=0;entryY=0.5;entryDx=0;entryDy=0;" parent="1" source="9NpazJbj0ygOGIqa0YBD-8" target="XAhSsXsDvgLGnZKUofWl-1" edge="1">
                    <mxGeometry relative="1" as="geometry">
                        <mxPoint x="186" y="291" as="sourcePoint"/>
                        <mxPoint x="206" y="204" as="targetPoint"/>
                    </mxGeometry>
                </mxCell>
                <mxCell id="OvC5UyDn5vQBD2vKrKi3-2" value="dto" style="rounded=0;whiteSpace=wrap;html=1;fillColor=#3333FF;" parent="1" vertex="1">
                    <mxGeometry x="216" y="109" width="80" height="60" as="geometry"/>
                </mxCell>
                <mxCell id="OvC5UyDn5vQBD2vKrKi3-3" value="" style="edgeStyle=entityRelationEdgeStyle;startArrow=none;endArrow=none;segment=10;curved=1;sourcePerimeterSpacing=0;targetPerimeterSpacing=0;exitX=1;exitY=0.5;exitDx=0;exitDy=0;entryX=0;entryY=0.5;entryDx=0;entryDy=0;" parent="1" source="9NpazJbj0ygOGIqa0YBD-8" target="OvC5UyDn5vQBD2vKrKi3-2" edge="1">
                    <mxGeometry relative="1" as="geometry">
                        <mxPoint x="186" y="180" as="sourcePoint"/>
                        <mxPoint x="216" y="110" as="targetPoint"/>
                    </mxGeometry>
                </mxCell>
                <mxCell id="OvC5UyDn5vQBD2vKrKi3-10" value="" style="curved=1;endArrow=classic;html=1;exitX=0;exitY=0.5;exitDx=0;exitDy=0;entryX=1;entryY=0.5;entryDx=0;entryDy=0;fillColor=#0000FF;" parent="1" source="XAhSsXsDvgLGnZKUofWl-2" target="9NpazJbj0ygOGIqa0YBD-12" edge="1">
                    <mxGeometry width="50" height="50" relative="1" as="geometry">
                        <mxPoint x="356" y="300" as="sourcePoint"/>
                        <mxPoint x="406" y="250" as="targetPoint"/>
                        <Array as="points">
                            <mxPoint x="356" y="60"/>
                        </Array>
                    </mxGeometry>
                </mxCell>
                <mxCell id="OvC5UyDn5vQBD2vKrKi3-11" value="" style="curved=1;endArrow=classic;html=1;exitX=0;exitY=0.5;exitDx=0;exitDy=0;entryX=1;entryY=0.5;entryDx=0;entryDy=0;fillColor=#0000FF;" parent="1" target="OvC5UyDn5vQBD2vKrKi3-2" edge="1">
                    <mxGeometry width="50" height="50" relative="1" as="geometry">
                        <mxPoint x="436" y="127.25" as="sourcePoint"/>
                        <mxPoint x="326" y="100" as="targetPoint"/>
                        <Array as="points">
                            <mxPoint x="346" y="122.25"/>
                        </Array>
                    </mxGeometry>
                </mxCell>
                <mxCell id="OvC5UyDn5vQBD2vKrKi3-13" value="" style="curved=1;endArrow=classic;html=1;entryX=0.5;entryY=0;entryDx=0;entryDy=0;fillColor=#0000FF;" parent="1" target="9NpazJbj0ygOGIqa0YBD-2" edge="1">
                    <mxGeometry width="50" height="50" relative="1" as="geometry">
                        <mxPoint x="436" y="130" as="sourcePoint"/>
                        <mxPoint x="336" y="281.75" as="targetPoint"/>
                        <Array as="points">
                            <mxPoint x="406" y="180"/>
                            <mxPoint x="386" y="265"/>
                            <mxPoint x="376" y="340"/>
                        </Array>
                    </mxGeometry>
                </mxCell>
            </root>
        </mxGraphModel>
    </diagram>
    <diagram id="-dx8TQR_k0gQh3Vad2zd" name="DB">
        <mxGraphModel dx="698" dy="517" grid="1" gridSize="10" guides="1" tooltips="1" connect="1" arrows="1" fold="1" page="1" pageScale="1" pageWidth="827" pageHeight="1169" math="0" shadow="0">
            <root>
                <mxCell id="0"/>
                <mxCell id="1" parent="0"/>
                <mxCell id="XDl5zfdwdC9Iml551A6i-1" value="PRISMA" style="rounded=0;whiteSpace=wrap;html=1;" parent="1" vertex="1">
                    <mxGeometry x="80" y="11" width="80" height="60" as="geometry"/>
                </mxCell>
                <mxCell id="XDl5zfdwdC9Iml551A6i-2" value="" style="edgeStyle=entityRelationEdgeStyle;startArrow=none;endArrow=none;segment=10;curved=1;sourcePerimeterSpacing=0;targetPerimeterSpacing=0;exitX=1;exitY=0.5;exitDx=0;exitDy=0;entryX=0;entryY=0.5;entryDx=0;entryDy=0;" parent="1" target="XDl5zfdwdC9Iml551A6i-3" edge="1">
                    <mxGeometry relative="1" as="geometry">
                        <mxPoint x="160" y="142" as="sourcePoint"/>
                        <mxPoint x="200" y="222" as="targetPoint"/>
                    </mxGeometry>
                </mxCell>
                <UserObject label="prisma" hedietLinkedDataV1_path="../src/table/table.module.ts" id="XDl5zfdwdC9Iml551A6i-3">
                    <mxCell style="rounded=0;whiteSpace=wrap;html=1;" parent="1" vertex="1">
                        <mxGeometry x="200" y="180" width="80" height="60" as="geometry"/>
                    </mxCell>
                </UserObject>
                <mxCell id="t3f6ZjSI8D6sIonSW-wN-3" value="src" style="rounded=0;whiteSpace=wrap;html=1;" vertex="1" parent="1">
                    <mxGeometry x="80" y="120" width="80" height="60" as="geometry"/>
                </mxCell>
                <mxCell id="t3f6ZjSI8D6sIonSW-wN-4" value="" style="edgeStyle=entityRelationEdgeStyle;startArrow=none;endArrow=none;segment=10;curved=1;sourcePerimeterSpacing=0;targetPerimeterSpacing=0;exitX=1;exitY=0.5;exitDx=0;exitDy=0;entryX=0;entryY=0.5;entryDx=0;entryDy=0;" edge="1" target="t3f6ZjSI8D6sIonSW-wN-5" parent="1">
                    <mxGeometry relative="1" as="geometry">
                        <mxPoint x="160" y="41" as="sourcePoint"/>
                        <mxPoint x="200" y="121" as="targetPoint"/>
                    </mxGeometry>
                </mxCell>
                <UserObject label="schema.pris-ma" hedietLinkedDataV1_path="../src/table/table.module.ts" id="t3f6ZjSI8D6sIonSW-wN-5">
                    <mxCell style="rounded=1;whiteSpace=wrap;html=1;" vertex="1" parent="1">
                        <mxGeometry x="200" y="60" width="80" height="60" as="geometry"/>
                    </mxCell>
                </UserObject>
                <mxCell id="RpBryK2_1HDhDUU3Vwlo-1" value="" style="edgeStyle=entityRelationEdgeStyle;startArrow=none;endArrow=none;segment=10;curved=1;sourcePerimeterSpacing=0;targetPerimeterSpacing=0;exitX=1;exitY=0.5;exitDx=0;exitDy=0;" edge="1" parent="1" source="t3f6ZjSI8D6sIonSW-wN-5">
                    <mxGeometry relative="1" as="geometry">
                        <mxPoint x="280" y="121" as="sourcePoint"/>
                        <mxPoint x="320" y="61" as="targetPoint"/>
                    </mxGeometry>
                </mxCell>
                <mxCell id="bZFPdo9cFuyyGHO1kwGz-1" value="Model" style="text;html=1;strokeColor=none;fillColor=none;align=left;verticalAlign=middle;whiteSpace=wrap;rounded=0;" vertex="1" parent="1">
                    <mxGeometry x="322" y="41" width="39" height="40" as="geometry"/>
                </mxCell>
                <mxCell id="cANzSHWC7pij8hkv7oby-2" value="" style="edgeStyle=entityRelationEdgeStyle;startArrow=none;endArrow=none;segment=10;curved=1;sourcePerimeterSpacing=0;targetPerimeterSpacing=0;entryX=0;entryY=0.5;entryDx=0;entryDy=0;" edge="1" parent="1" target="cANzSHWC7pij8hkv7oby-4">
                    <mxGeometry relative="1" as="geometry">
                        <mxPoint x="280" y="210" as="sourcePoint"/>
                        <mxPoint x="320" y="281" as="targetPoint"/>
                    </mxGeometry>
                </mxCell>
                <UserObject label="module" hedietLinkedDataV1_path="../src/table/table.module.ts" id="cANzSHWC7pij8hkv7oby-4">
                    <mxCell style="rounded=1;whiteSpace=wrap;html=1;" vertex="1" parent="1">
                        <mxGeometry x="320" y="140" width="80" height="60" as="geometry"/>
                    </mxCell>
                </UserObject>
                <mxCell id="cANzSHWC7pij8hkv7oby-5" value="" style="edgeStyle=entityRelationEdgeStyle;startArrow=none;endArrow=none;segment=10;curved=1;sourcePerimeterSpacing=0;targetPerimeterSpacing=0;exitX=1;exitY=0.5;exitDx=0;exitDy=0;entryX=0;entryY=0.5;entryDx=0;entryDy=0;" edge="1" parent="1" source="XDl5zfdwdC9Iml551A6i-3" target="cANzSHWC7pij8hkv7oby-6">
                    <mxGeometry relative="1" as="geometry">
                        <mxPoint x="280.5" y="301" as="sourcePoint"/>
                        <mxPoint x="320.5" y="361" as="targetPoint"/>
                    </mxGeometry>
                </mxCell>
                <UserObject label="service" hedietLinkedDataV1_path="../src/table/table.module.ts" id="cANzSHWC7pij8hkv7oby-6">
                    <mxCell style="rounded=1;whiteSpace=wrap;html=1;" vertex="1" parent="1">
                        <mxGeometry x="322" y="220" width="80" height="60" as="geometry"/>
                    </mxCell>
                </UserObject>
                <UserObject label="table" hedietLinkedDataV1_path="../src/table/table.module.ts" id="tKMjh9qn1qoxojke26zi-1">
                    <mxCell style="rounded=0;whiteSpace=wrap;html=1;" vertex="1" parent="1">
                        <mxGeometry x="200" y="379" width="80" height="60" as="geometry"/>
                    </mxCell>
                </UserObject>
                <UserObject label="module" hedietLinkedDataV1_path="../src/table/table.module.ts" id="tKMjh9qn1qoxojke26zi-2">
                    <mxCell style="rounded=1;whiteSpace=wrap;html=1;" vertex="1" parent="1">
                        <mxGeometry x="320" y="299" width="80" height="60" as="geometry"/>
                    </mxCell>
                </UserObject>
                <mxCell id="tKMjh9qn1qoxojke26zi-3" value="" style="edgeStyle=entityRelationEdgeStyle;startArrow=none;endArrow=none;segment=10;curved=1;sourcePerimeterSpacing=0;targetPerimeterSpacing=0;exitX=1;exitY=0.5;exitDx=0;exitDy=0;entryX=0;entryY=0.5;entryDx=0;entryDy=0;" edge="1" target="tKMjh9qn1qoxojke26zi-2" parent="1" source="tKMjh9qn1qoxojke26zi-1">
                    <mxGeometry relative="1" as="geometry">
                        <mxPoint x="280" y="379" as="sourcePoint"/>
                        <mxPoint x="320" y="439" as="targetPoint"/>
                    </mxGeometry>
                </mxCell>
                <mxCell id="tKMjh9qn1qoxojke26zi-4" value="" style="edgeStyle=entityRelationEdgeStyle;startArrow=none;endArrow=none;segment=10;curved=1;sourcePerimeterSpacing=0;targetPerimeterSpacing=0;exitX=1;exitY=0.5;exitDx=0;exitDy=0;entryX=0;entryY=0.5;entryDx=0;entryDy=0;" edge="1" source="tKMjh9qn1qoxojke26zi-1" target="tKMjh9qn1qoxojke26zi-5" parent="1">
                    <mxGeometry relative="1" as="geometry">
                        <mxPoint x="280.5" y="459" as="sourcePoint"/>
                        <mxPoint x="320.5" y="519" as="targetPoint"/>
                    </mxGeometry>
                </mxCell>
                <UserObject label="controller" hedietLinkedDataV1_path="../src/table/table.module.ts" id="tKMjh9qn1qoxojke26zi-5">
                    <mxCell style="rounded=1;whiteSpace=wrap;html=1;" vertex="1" parent="1">
                        <mxGeometry x="320" y="379" width="80" height="60" as="geometry"/>
                    </mxCell>
                </UserObject>
                <mxCell id="3NPoWJ5aYasUxxwO10fx-1" value="" style="edgeStyle=entityRelationEdgeStyle;startArrow=none;endArrow=none;segment=10;curved=1;sourcePerimeterSpacing=0;targetPerimeterSpacing=0;exitX=1;exitY=0.5;exitDx=0;exitDy=0;entryX=0;entryY=0.5;entryDx=0;entryDy=0;" edge="1" target="3NPoWJ5aYasUxxwO10fx-2" parent="1" source="tKMjh9qn1qoxojke26zi-1">
                    <mxGeometry relative="1" as="geometry">
                        <mxPoint x="280" y="489" as="sourcePoint"/>
                        <mxPoint x="320.5" y="609" as="targetPoint"/>
                    </mxGeometry>
                </mxCell>
                <UserObject label="service" hedietLinkedDataV1_path="../src/table/table.module.ts" id="3NPoWJ5aYasUxxwO10fx-2">
                    <mxCell style="rounded=1;whiteSpace=wrap;html=1;" vertex="1" parent="1">
                        <mxGeometry x="320" y="459" width="80" height="60" as="geometry"/>
                    </mxCell>
                </UserObject>
                <mxCell id="ZI1bAf4H8EPCUW3Zpzve-11" value="&lt;div style=&quot;color: rgb(248, 248, 242); background-color: rgb(40, 42, 54); font-family: Consolas, &amp;quot;Courier New&amp;quot;, monospace; font-size: 14px; line-height: 19px;&quot;&gt;imports&lt;span style=&quot;color: #ff79c6;&quot;&gt;:&lt;/span&gt; [&lt;span style=&quot;color: #8be9fd;&quot;&gt;PrismaModule&lt;/span&gt;],&lt;/div&gt;" style="text;html=1;strokeColor=none;fillColor=none;align=center;verticalAlign=middle;whiteSpace=wrap;rounded=0;" vertex="1" parent="1">
                    <mxGeometry x="429" y="285" width="199" height="30" as="geometry"/>
                </mxCell>
                <mxCell id="ZI1bAf4H8EPCUW3Zpzve-12" value="" style="edgeStyle=entityRelationEdgeStyle;startArrow=none;endArrow=none;segment=10;curved=1;sourcePerimeterSpacing=0;targetPerimeterSpacing=0;exitX=1;exitY=0.5;exitDx=0;exitDy=0;" edge="1" parent="1">
                    <mxGeometry relative="1" as="geometry">
                        <mxPoint x="400" y="330" as="sourcePoint"/>
                        <mxPoint x="430" y="301" as="targetPoint"/>
                    </mxGeometry>
                </mxCell>
                <mxCell id="ZI1bAf4H8EPCUW3Zpzve-13" value="" style="endArrow=none;html=1;" edge="1" parent="1">
                    <mxGeometry width="50" height="50" relative="1" as="geometry">
                        <mxPoint x="402" y="250" as="sourcePoint"/>
                        <mxPoint x="520" y="280" as="targetPoint"/>
                        <Array as="points">
                            <mxPoint x="520" y="250"/>
                            <mxPoint x="520" y="280"/>
                        </Array>
                    </mxGeometry>
                </mxCell>
                <mxCell id="ZI1bAf4H8EPCUW3Zpzve-17" value="" style="edgeStyle=segmentEdgeStyle;endArrow=classic;html=1;curved=0;rounded=0;endSize=8;startSize=8;entryX=1;entryY=0.5;entryDx=0;entryDy=0;" edge="1" parent="1" target="3NPoWJ5aYasUxxwO10fx-2">
                    <mxGeometry width="50" height="50" relative="1" as="geometry">
                        <mxPoint x="520" y="390" as="sourcePoint"/>
                        <mxPoint x="440" y="490" as="targetPoint"/>
                        <Array as="points">
                            <mxPoint x="520" y="489"/>
                        </Array>
                    </mxGeometry>
                </mxCell>
                <mxCell id="ZI1bAf4H8EPCUW3Zpzve-18" value="ao importar o prisma module, o qual é dependência do table module, o prisma service é levado ao table service" style="text;html=1;strokeColor=none;fillColor=none;align=center;verticalAlign=middle;whiteSpace=wrap;rounded=0;" vertex="1" parent="1">
                    <mxGeometry x="435" y="312" width="170" height="71" as="geometry"/>
                </mxCell>
            </root>
        </mxGraphModel>
    </diagram>
</mxfile>
